Coordinates
version=1
nRows=16
nColumns=40
inDegrees=yes

Units are S.I. units (second, meters, Newtons, ...)
If the header above contains a line with 'inDegrees', this indicates whether rotational values are in degrees (yes) or radians (no).

endheader
time	pelvis_tilt	pelvis_list	pelvis_rotation	pelvis_tx	pelvis_ty	pelvis_tz	hip_flexion_r	hip_adduction_r	hip_rotation_r	knee_angle_r	knee_angle_r_beta	ankle_angle_r	subtalar_angle_r	mtp_angle_r	hip_flexion_l	hip_adduction_l	hip_rotation_l	knee_angle_l	knee_angle_l_beta	ankle_angle_l	subtalar_angle_l	mtp_angle_l	lumbar_extension	lumbar_bending	lumbar_rotation	arm_flex_r	arm_add_r	arm_rot_r	elbow_flex_r	pro_sup_r	wrist_flex_r	wrist_dev_r	arm_flex_l	arm_add_l	arm_rot_l	elbow_flex_l	pro_sup_l	wrist_flex_l	wrist_dev_l
      3.66000000	    -34.86193965	     -0.54264860	     -2.07983666	      0.08275678	      0.61753973	     -1.20797876	    100.22596647	     -5.65702666	     -1.17179985	     92.87076774	      1.62090068	     20.68619980	    -20.05754472	      0.00000000	    100.08541823	    -14.85360925	     -1.78766953	     94.94886539	      1.65717032	     24.36122876	     -8.48455862	      0.00000000	    -11.40663363	      1.79246088	      3.03188944	     44.99992432	    -14.99999999	     44.99992432	     75.00017585	     45.00000026	      0.00000000	      0.00000000	     44.99992432	    -14.99999999	     44.99992432	     75.00017585	     45.00000026	      0.00000000	      0.00000000
      3.66500000	    -34.82997240	     -0.54815042	     -2.08715439	      0.08295535	      0.61745792	     -1.20791359	    100.20360950	     -5.66412623	     -1.20177884	     92.91992301	      1.62175860	     20.70050423	    -20.06670539	      0.00000000	    100.05810148	    -14.88538149	     -1.79222195	     94.98546368	      1.65780908	     24.39155762	     -8.46959853	      0.00000000	    -11.40347052	      1.78102036	      2.99349798	     44.99992432	    -14.99999999	     44.99992432	     75.00017585	     45.00000026	      0.00000000	      0.00000000	     44.99992432	    -14.99999999	     44.99992432	     75.00017585	     45.00000026	      0.00000000	      0.00000000
      3.67000000	    -34.76355489	     -0.54849186	     -2.07650635	      0.08315423	      0.61749878	     -1.20784625	    100.13428660	     -5.67570775	     -1.21811576	     92.95256452	      1.62232830	     20.72179808	    -20.08283957	      0.00000000	     99.97653986	    -14.89433158	     -1.80376858	     95.01221628	      1.65827600	     24.43399473	     -8.45999835	      0.00000000	    -11.46135894	      1.76648195	      2.95022260	     44.99992432	    -14.99999999	     44.99992432	     75.00017585	     45.00000026	      0.00000000	      0.00000000	     44.99992432	    -14.99999999	     44.99992432	     75.00017585	     45.00000026	      0.00000000	      0.00000000
      3.67500000	    -34.96843960	     -0.57513432	     -2.14304344	      0.08301928	      0.61673453	     -1.20761711	    100.38952290	     -5.55641251	     -1.21372596	     92.98616520	      1.62291474	     20.74913351	    -20.05759431	      0.00000000	    100.27994563	    -14.95114118	     -1.69431128	     95.07830456	      1.65942946	     24.41077677	     -8.43710825	      0.00000000	    -11.12418025	      1.75177214	      2.95662161	     44.99992432	    -14.99999999	     44.99992432	     75.00017585	     45.00000026	      0.00000000	      0.00000000	     44.99992432	    -14.99999999	     44.99992432	     75.00017585	     45.00000026	      0.00000000	      0.00000000
      3.68000000	    -35.00261986	     -0.60025891	     -2.16531963	      0.08307230	      0.61646391	     -1.20750762	    100.43703011	     -5.50957043	     -1.23152592	     93.01870523	      1.62348267	     20.72967062	    -20.12859750	      0.00000000	    100.35488180	    -14.97783742	     -1.64158229	     95.13098474	      1.66034890	     24.42913449	     -8.42429736	      0.00000000	    -11.04462270	      1.77763510	      2.95008557	     44.99992432	    -14.99999999	     44.99992432	     75.00017585	     45.00000026	      0.00000000	      0.00000000	     44.99992432	    -14.99999999	     44.99992432	     75.00017585	     45.00000026	      0.00000000	      0.00000000
      3.68500000	    -34.88691796	     -0.59262609	     -2.14134581	      0.08333985	      0.61665626	     -1.20753272	    100.30195605	     -5.55554833	     -1.24109362	     93.04859907	      1.62400442	     20.76747478	    -20.13056298	      0.00000000	    100.20637634	    -14.97269471	     -1.68250213	     95.15002651	      1.66068125	     24.48689116	     -8.42231845	      0.00000000	    -11.17329398	      1.75433904	      2.89804976	     44.99992432	    -14.99999999	     44.99992432	     75.00017585	     45.00000026	      0.00000000	      0.00000000	     44.99992432	    -14.99999999	     44.99992432	     75.00017585	     45.00000026	      0.00000000	      0.00000000
      3.69000000	    -34.99943864	     -0.58346973	     -2.14475282	      0.08331148	      0.61615333	     -1.20748387	    100.46303385	     -5.53573159	     -1.21001228	     93.10176439	      1.62493233	     20.84383782	    -20.03624328	      0.00000000	    100.36495890	    -14.95436111	     -1.63714866	     95.20133406	      1.66157673	     24.49054504	     -8.40306067	      0.00000000	    -10.96825012	      1.72461247	      2.83429612	     44.99992432	    -14.99999999	     44.99992432	     75.00017585	     45.00000026	      0.00000000	      0.00000000	     44.99992432	    -14.99999999	     44.99992432	     75.00017585	     45.00000026	      0.00000000	      0.00000000
      3.69500000	    -34.82909170	     -0.58195114	     -2.08052401	      0.08360228	      0.61651629	     -1.20761594	    100.26122201	     -5.61437670	     -1.19735339	     93.14538915	      1.62569372	     20.91085985	    -20.03198939	      0.00000000	    100.14245960	    -14.89717555	     -1.68490785	     95.19666438	      1.66149523	     24.55618993	     -8.45314376	      0.00000000	    -11.18900110	      1.73038286	      2.73621074	     44.99992432	    -14.99999999	     44.99992432	     75.00017585	     45.00000026	      0.00000000	      0.00000000	     44.99992432	    -14.99999999	     44.99992432	     75.00017585	     45.00000026	      0.00000000	      0.00000000
      3.70000000	    -35.06095961	     -0.59827672	     -2.13241718	      0.08343624	      0.61571463	     -1.20747289	    100.55428605	     -5.53524256	     -1.20547348	     93.16897547	      1.62610538	     20.86004684	    -20.04369549	      0.00000000	    100.47362125	    -14.93576743	     -1.59882384	     95.26924595	      1.66276202	     24.51382736	     -8.41843495	      0.00000000	    -10.81954711	      1.70552191	      2.70139507	     44.99992432	    -14.99999999	     44.99992432	     75.00017585	     45.00000026	      0.00000000	      0.00000000	     44.99992432	    -14.99999999	     44.99992432	     75.00017585	     45.00000026	      0.00000000	      0.00000000
      3.70500000	    -35.14478111	     -0.60726205	     -2.16237922	      0.08339162	      0.61539974	     -1.20735830	    100.66648917	     -5.46738664	     -1.19127920	     93.19669603	      1.62658920	     20.86385625	    -20.06241484	      0.00000000	    100.57812811	    -14.94424730	     -1.53426779	     95.26857721	      1.66275035	     24.51874465	     -8.40826639	      0.00000000	    -10.68826280	      1.71849771	      2.67406325	     44.99992432	    -14.99999999	     44.99992432	     75.00017585	     45.00000026	      0.00000000	      0.00000000	     44.99992432	    -14.99999999	     44.99992432	     75.00017585	     45.00000026	      0.00000000	      0.00000000
      3.71000000	    -34.99672523	     -0.59688920	     -2.13863760	      0.08370537	      0.61572409	     -1.20741751	    100.48131404	     -5.53056151	     -1.21315410	     93.20779939	      1.62678299	     20.88322973	    -20.06085035	      0.00000000	    100.40111443	    -14.96252031	     -1.60771443	     95.31219450	      1.66351161	     24.55508850	     -8.41277155	      0.00000000	    -10.87373090	      1.68154446	      2.63959277	     44.99992432	    -14.99999999	     44.99992432	     75.00017585	     45.00000026	      0.00000000	      0.00000000	     44.99992432	    -14.99999999	     44.99992432	     75.00017585	     45.00000026	      0.00000000	      0.00000000
      3.71500000	    -35.11209515	     -0.58488450	     -2.14261904	      0.08366952	      0.61524478	     -1.20744114	    100.63489267	     -5.51105599	     -1.17179493	     93.24309271	      1.62739897	     20.91337802	    -20.02252334	      0.00000000	    100.56744989	    -14.95017971	     -1.59487447	     95.37790024	      1.66465839	     24.55924676	     -8.41827553	      0.00000000	    -10.66549158	      1.69088133	      2.60138045	     44.99992433	    -14.99999999	     44.99992433	     75.00017585	     45.00000026	      0.00000000	      0.00000000	     44.99992433	    -14.99999999	     44.99992433	     75.00017585	     45.00000026	      0.00000000	      0.00000000
      3.72000000	    -35.17169254	     -0.58103581	     -2.14901404	      0.08365920	      0.61502860	     -1.20737437	    100.72800919	     -5.50303684	     -1.17615469	     93.28491414	      1.62812889	     20.93615011	    -19.99932915	      0.00000000	    100.62216586	    -14.93225953	     -1.55483084	     95.34431965	      1.66407230	     24.56592114	     -8.41661618	      0.00000000	    -10.58044586	      1.65681267	      2.56826617	     44.99992433	    -14.99999999	     44.99992433	     75.00017585	     45.00000026	      0.00000000	      0.00000000	     44.99992433	    -14.99999999	     44.99992433	     75.00017585	     45.00000026	      0.00000000	      0.00000000
      3.72500000	    -35.18886626	     -0.57384034	     -2.17066946	      0.08375187	      0.61485294	     -1.20732363	    100.75254145	     -5.48179580	     -1.17469321	     93.30052749	      1.62840140	     20.96259356	    -20.00029616	      0.00000000	    100.66809008	    -14.96739562	     -1.55988833	     95.40795089	      1.66518288	     24.56651558	     -8.44052600	      0.00000000	    -10.53208786	      1.63394046	      2.57916947	     44.99992433	    -14.99999999	     44.99992433	     75.00017585	     45.00000026	      0.00000000	      0.00000000	     44.99992433	    -14.99999999	     44.99992433	     75.00017585	     45.00000026	      0.00000000	      0.00000000
      3.73000000	    -35.07009863	     -0.55444798	     -2.15101204	      0.08394377	      0.61513118	     -1.20742757	    100.62252332	     -5.52494371	     -1.16326324	     93.32713928	      1.62886586	     20.96460622	    -19.97997274	      0.00000000	    100.51055834	    -14.95755212	     -1.62101298	     95.41333996	      1.66527693	     24.60618241	     -8.41930171	      0.00000000	    -10.69116457	      1.61818350	      2.52423572	     44.99992433	    -14.99999999	     44.99992433	     75.00017585	     45.00000026	      0.00000000	      0.00000000	     44.99992433	    -14.99999999	     44.99992433	     75.00017585	     45.00000026	      0.00000000	      0.00000000
      3.73500000	    -35.08409962	     -0.53316283	     -2.15315138	      0.08402252	      0.61503691	     -1.20740773	    100.64627102	     -5.52765433	     -1.14226212	     93.34718726	      1.62921577	     20.99878619	    -19.93431677	      0.00000000	    100.51817944	    -14.96481585	     -1.64469066	     95.42149073	      1.66541919	     24.62294599	     -8.41266078	      0.00000000	    -10.65475341	      1.58075439	      2.49681302	     44.99992433	    -14.99999999	     44.99992433	     75.00017585	     45.00000026	      0.00000000	      0.00000000	     44.99992433	    -14.99999999	     44.99992433	     75.00017585	     45.00000026	      0.00000000	      0.00000000
